# xmcd CD database file
#
# Track frame offsets:
#	150
#	37231
#	70050
#	115673
#
# Disc length: 1781 seconds
#
# Revision: 0
# Processed by: cddbd v1.5PL3 Copyright (c) Steve Scherf et al.
# Submitted via: CDex 1.50
#
DISCID=3106f304
DTITLE=Gigi D'Agostino and albertino - Super [CD-Single)
DYEAR=2000
DGENRE=New Age
TTITLE0=Super (Rassodante)
TTITLE1=Super (Idratante)
TTITLE2=Super (Rilassante)
TTITLE3=Super (Riscaldamento)
EXTD=YEAR: 2000
EXTT0=
EXTT1=
EXTT2=
EXTT3=
PLAYORDER=
